<svg width="41" height="44" viewBox="0 0 41 44" fill="none" xmlns="http://www.w3.org/2000/svg">
<path d="M20.1702 9.72266C13.7087 9.72266 8.45222 14.7531 8.45222 20.936C8.45222 24.0751 5.78313 26.6291 2.50255 26.6291C1.1201 26.6291 0 27.7009 0 29.0237C0 30.3466 1.1201 31.4184 2.50255 31.4184C8.54353 31.4184 13.458 26.7165 13.458 20.936C13.458 17.3939 16.4691 14.5125 20.1702 14.5125C23.8713 14.5125 26.8831 17.3939 26.8831 20.936C26.8831 27.8886 23.663 34.4332 18.0496 38.8921C16.9861 39.7368 16.8395 41.2467 17.7223 42.265C18.2174 42.8353 18.9305 43.1301 19.6494 43.1301C20.2127 43.1301 20.7792 42.9492 21.2466 42.5782C28.0097 37.2062 31.8889 29.3178 31.8889 20.936C31.8889 14.7531 26.6317 9.72266 20.1702 9.72266Z" fill="url(#paint0_linear)"/>
<path d="M2.35458 21.9987C3.70443 22.0466 4.84767 21.0373 4.90184 19.7352C5.23694 11.6578 12.0851 5.33046 20.4928 5.33046C29.097 5.33046 36.0963 12.0664 36.0963 20.3468C36.0963 22.9516 35.7656 25.543 35.1131 28.0478C34.7837 29.3117 35.5817 30.5931 36.895 30.9102C37.0953 30.9587 37.2956 30.9817 37.4928 30.9817C38.5907 30.9817 39.5903 30.267 39.8694 29.1953C40.6195 26.3159 41 23.3389 41 20.3468C41 9.46463 31.8005 0.611328 20.4928 0.611328C15.1595 0.611328 10.1079 2.57172 6.26806 6.13062C2.43898 9.67982 0.213596 14.4444 0.0019542 19.5473C-0.0515861 20.8494 1.00158 21.9471 2.35458 21.9987V21.9987Z" fill="url(#paint1_linear)"/>
<path d="M20.3723 18.8335C19.0434 18.8335 17.9666 19.8723 17.9666 21.1545C17.9666 26.8203 14.4712 31.9077 9.06218 34.1148C7.83833 34.6139 7.26596 35.976 7.78331 37.1567C8.17149 38.0423 9.06279 38.5742 10.0005 38.5742C10.3126 38.5742 10.6303 38.5152 10.9363 38.3906C18.1298 35.4548 22.778 28.6893 22.778 21.1545C22.778 19.8723 21.7012 18.8335 20.3723 18.8335V18.8335Z" fill="url(#paint2_linear)"/>
<defs>
<linearGradient id="paint0_linear" x1="-3.92682" y1="50.8538" x2="25.2788" y2="50.8538" gradientUnits="userSpaceOnUse">
<stop stop-color="#B038DA"/>
<stop offset="1" stop-color="#F79DED"/>
</linearGradient>
<linearGradient id="paint1_linear" x1="-5.04877" y1="38.0032" x2="32.5013" y2="38.0032" gradientUnits="userSpaceOnUse">
<stop stop-color="#B038DA"/>
<stop offset="1" stop-color="#F79DED"/>
</linearGradient>
<linearGradient id="paint2_linear" x1="5.72286" y1="43.1382" x2="19.6303" y2="43.1382" gradientUnits="userSpaceOnUse">
<stop stop-color="#B038DA"/>
<stop offset="1" stop-color="#F79DED"/>
</linearGradient>
</defs>
</svg>
