<svg width="158" height="39" viewBox="0 0 158 39" fill="none" xmlns="http://www.w3.org/2000/svg">
<path d="M129.578 7.75L144.019 5.76314L152.751 16.8875L138.377 19.9904L129.578 7.75Z" fill="#DF7AE7"/>
<path fill-rule="evenodd" clip-rule="evenodd" d="M132.299 35.2106L137.216 22.4634L138.01 20.4084L153.702 18.037L147.991 32.8392L132.299 35.2106ZM121.954 22.5481L127.662 7.75222L137.487 20.2033L135.993 24.0779L131.779 35.001L121.954 22.5481ZM143.791 5.02609L153.618 17.4807L147.987 18.3323L137.925 19.8502L128.099 7.39556L143.791 5.02609ZM154.398 17.7892C154.409 17.7661 154.405 17.7391 154.407 17.7132C154.41 17.6912 154.418 17.6684 154.415 17.6452C154.41 17.6224 154.398 17.6045 154.387 17.5824C154.377 17.5582 154.374 17.5331 154.357 17.5119L144.128 4.54783C144.068 4.46979 143.967 4.43102 143.867 4.44511L127.536 6.91282C127.461 6.92339 127.403 6.97089 127.359 7.03025C127.344 7.05004 127.327 7.06625 127.318 7.08715V7.08715L121.374 22.4945C121.339 22.588 121.354 22.694 121.416 22.7737L131.643 35.7361L131.645 35.7377C131.676 35.7766 131.717 35.8062 131.762 35.8233C131.765 35.825 131.769 35.8264 131.775 35.8294C131.784 35.8341 131.794 35.8248 131.802 35.8276C131.837 35.8364 131.869 35.8456 131.906 35.8405L148.237 33.3708C148.335 33.357 148.419 33.29 148.455 33.1965L154.398 17.7892Z" fill="url(#paint0_linear)"/>
<path d="M132.299 35.2106L131.366 34.8507L130.746 36.4565L132.448 36.1993L132.299 35.2106ZM137.216 22.4634L136.283 22.1031L136.283 22.1035L137.216 22.4634ZM138.01 20.4084L137.86 19.4196L137.286 19.5064L137.077 20.0481L138.01 20.4084ZM153.702 18.037L154.635 18.397L155.255 16.791L153.553 17.0482L153.702 18.037ZM147.991 32.8392L148.141 33.8279L148.715 33.7411L148.924 33.1991L147.991 32.8392ZM121.954 22.5481L121.021 22.1881L120.816 22.7199L121.169 23.1674L121.954 22.5481ZM127.662 7.75222L128.447 7.13279L127.361 5.75562L126.729 7.3923L127.662 7.75222ZM137.487 20.2033L138.42 20.563L138.625 20.0313L138.272 19.5839L137.487 20.2033ZM135.993 24.0779L136.926 24.4378L136.926 24.4376L135.993 24.0779ZM131.779 35.001L130.994 35.6204L132.08 36.9978L132.712 35.3609L131.779 35.001ZM143.791 5.02609L144.576 4.40667L144.217 3.95056L143.642 4.0373L143.791 5.02609ZM153.618 17.4807L153.768 18.4695L155.469 18.2122L154.403 16.8613L153.618 17.4807ZM147.987 18.3323L148.137 19.3212L148.137 19.3211L147.987 18.3323ZM137.925 19.8502L137.14 20.4696L137.5 20.9257L138.074 20.839L137.925 19.8502ZM128.099 7.39556L127.949 6.40677L126.247 6.66374L127.313 8.01498L128.099 7.39556ZM154.398 17.7892L153.487 17.3783L153.475 17.4035L153.465 17.4293L154.398 17.7892ZM154.407 17.7132L153.415 17.5894L153.412 17.6089L153.411 17.6284L154.407 17.7132ZM154.415 17.6452L155.405 17.5052L155.399 17.4642L155.39 17.4239L154.415 17.6452ZM154.387 17.5824L153.453 17.9403L153.47 17.9844L153.491 18.0267L154.387 17.5824ZM154.357 17.5119L155.144 16.8941L155.142 16.8924L154.357 17.5119ZM144.128 4.54783L143.335 5.15671L143.343 5.16726L144.128 4.54783ZM143.867 4.44511L143.727 3.45493L143.718 3.45634L143.867 4.44511ZM127.536 6.91282L127.676 7.903L127.685 7.90159L127.536 6.91282ZM127.359 7.03025L128.16 7.62886L127.359 7.03025ZM121.374 22.4945L120.441 22.1345L120.44 22.1385L121.374 22.4945ZM121.416 22.7737L120.627 23.3882L120.631 23.3931L121.416 22.7737ZM131.643 35.7361L130.858 36.3555L130.937 36.456L131.039 36.5333L131.643 35.7361ZM131.645 35.7377L132.428 35.1155L132.349 35.0167L132.248 34.9405L131.645 35.7377ZM131.762 35.8233L132.366 35.026L132.251 34.939L132.116 34.8879L131.762 35.8233ZM131.775 35.8294L132.26 34.9547L132.235 34.9412L132.21 34.9291L131.775 35.8294ZM131.802 35.8276L131.482 36.775L131.517 36.7868L131.553 36.7959L131.802 35.8276ZM131.906 35.8405L132.046 36.8306L132.055 36.8292L131.906 35.8405ZM148.237 33.3708L148.097 32.3806L148.087 32.3821L148.237 33.3708ZM148.455 33.1965L147.522 32.8366L147.52 32.8405L148.455 33.1965ZM133.232 35.5705L138.149 22.8233L136.283 22.1035L131.366 34.8507L133.232 35.5705ZM138.149 22.8238L138.943 20.7687L137.077 20.0481L136.283 22.1031L138.149 22.8238ZM138.159 21.3972L153.852 19.0258L153.553 17.0482L137.86 19.4196L138.159 21.3972ZM152.769 17.677L147.058 32.4792L148.924 33.1991L154.635 18.397L152.769 17.677ZM147.842 31.8504L132.149 34.2218L132.448 36.1993L148.141 33.8279L147.842 31.8504ZM122.887 22.908L128.595 8.11215L126.729 7.3923L121.021 22.1881L122.887 22.908ZM126.877 8.37166L136.701 20.8227L138.272 19.5839L128.447 7.13279L126.877 8.37166ZM136.553 19.8435L135.059 23.7181L136.926 24.4376L138.42 20.563L136.553 19.8435ZM135.06 23.718L130.846 34.6411L132.712 35.3609L136.926 24.4378L135.06 23.718ZM132.564 34.3817L122.739 21.9287L121.169 23.1674L130.994 35.6204L132.564 34.3817ZM143.006 5.64551L152.833 18.1001L154.403 16.8613L144.576 4.40667L143.006 5.64551ZM153.469 16.492L147.838 17.3436L148.137 19.3211L153.768 18.4695L153.469 16.492ZM147.838 17.3435L137.776 18.8614L138.074 20.839L148.137 19.3212L147.838 17.3435ZM138.71 19.2308L128.884 6.77614L127.313 8.01498L137.14 20.4696L138.71 19.2308ZM128.248 8.38435L143.941 6.01488L143.642 4.0373L127.949 6.40677L128.248 8.38435ZM155.31 18.2C155.392 18.0174 155.402 17.856 155.405 17.8005C155.405 17.7844 155.406 17.7709 155.406 17.7631C155.406 17.7591 155.406 17.7556 155.406 17.7536C155.406 17.751 155.406 17.7509 155.406 17.7503C155.406 17.7467 155.406 17.7687 155.404 17.798L153.411 17.6284C153.407 17.6707 153.407 17.7058 153.406 17.7152C153.406 17.7346 153.406 17.7176 153.407 17.704C153.408 17.6742 153.415 17.5379 153.487 17.3783L155.31 18.2ZM155.399 17.837C155.395 17.8702 155.39 17.8947 155.39 17.8947C155.388 17.9063 155.394 17.8768 155.397 17.858C155.406 17.8123 155.429 17.6758 155.405 17.5052L153.425 17.7853C153.404 17.6378 153.425 17.5242 153.429 17.5012C153.43 17.4973 153.431 17.4941 153.431 17.492C153.432 17.49 153.432 17.4887 153.432 17.4885C153.432 17.4884 153.432 17.4885 153.432 17.4889C153.432 17.4893 153.432 17.4897 153.431 17.4906C153.431 17.4921 153.431 17.4951 153.43 17.4984C153.428 17.5096 153.42 17.5452 153.415 17.5894L155.399 17.837ZM155.39 17.4239C155.362 17.3001 155.318 17.2079 155.296 17.1631C155.286 17.143 155.275 17.1242 155.275 17.1234C155.272 17.1182 155.277 17.1265 155.283 17.1381L153.491 18.0267C153.502 18.0493 153.512 18.0682 153.515 18.0732C153.52 18.0827 153.515 18.074 153.51 18.0639C153.498 18.0394 153.463 17.9675 153.44 17.8666L155.39 17.4239ZM155.32 17.2245C155.33 17.25 155.336 17.2695 155.335 17.2664C155.335 17.2657 155.335 17.2657 155.334 17.2631C155.334 17.2612 155.333 17.2579 155.331 17.2541C155.329 17.2466 155.325 17.2341 155.32 17.2191C155.299 17.1601 155.25 17.03 155.144 16.8941L153.571 18.1296C153.481 18.0149 153.442 17.908 153.43 17.8729C153.425 17.86 153.42 17.8443 153.426 17.8619C153.429 17.871 153.439 17.9027 153.453 17.9403L155.32 17.2245ZM155.142 16.8924L144.913 3.9284L143.343 5.16726L153.572 18.1313L155.142 16.8924ZM144.921 3.93901C144.628 3.55641 144.16 3.3937 143.727 3.45497L144.007 5.43525C143.774 5.46834 143.509 5.38317 143.335 5.15665L144.921 3.93901ZM143.718 3.45634L127.386 5.92404L127.685 7.90159L144.017 5.43389L143.718 3.45634ZM127.396 5.92268C126.956 5.98482 126.688 6.25749 126.558 6.43164L128.16 7.62886C128.119 7.68428 127.966 7.86195 127.676 7.90296L127.396 5.92268ZM126.558 6.43164C126.57 6.41574 126.579 6.40472 126.577 6.40668C126.577 6.40701 126.577 6.40735 126.576 6.40882C126.575 6.40998 126.573 6.41208 126.571 6.4144C126.567 6.41898 126.561 6.42685 126.553 6.43638C126.527 6.4695 126.453 6.5635 126.396 6.70035L128.24 7.47394C128.192 7.58989 128.131 7.66534 128.119 7.68019C128.114 7.68629 128.107 7.69544 128.118 7.68243C128.124 7.67513 128.141 7.65466 128.16 7.62886L126.558 6.43164ZM126.385 6.72722L120.441 22.1345L122.307 22.8544L128.251 7.44707L126.385 6.72722ZM120.44 22.1385C120.282 22.5538 120.347 23.0286 120.627 23.3882L122.205 22.1592C122.361 22.3594 122.396 22.6221 122.309 22.8504L120.44 22.1385ZM120.631 23.3931L130.858 36.3555L132.428 35.1167L122.201 22.1543L120.631 23.3931ZM131.039 36.5333L131.041 36.535L132.248 34.9405L132.246 34.9388L131.039 36.5333ZM130.862 36.3599C131.008 36.5436 131.199 36.6794 131.409 36.7587L132.116 34.8879C132.235 34.9329 132.343 35.0096 132.428 35.1155L130.862 36.3599ZM131.159 36.6207C131.222 36.6685 131.277 36.6984 131.304 36.7122C131.331 36.7265 131.354 36.7365 131.359 36.7386C131.379 36.7476 131.354 36.7368 131.34 36.7297L132.21 34.9291C132.189 34.9191 132.16 34.906 132.176 34.9131C132.178 34.9143 132.199 34.9235 132.225 34.937C132.25 34.9499 132.304 34.979 132.366 35.026L131.159 36.6207ZM131.29 36.7041C131.393 36.7612 131.5 36.7965 131.602 36.8148C131.701 36.8327 131.789 36.833 131.856 36.828C131.923 36.823 131.976 36.8124 132.01 36.8047C132.043 36.7971 132.068 36.7894 132.075 36.7873C132.077 36.7868 132.084 36.7848 132.079 36.786C132.078 36.7863 132.073 36.788 132.065 36.7901C132.052 36.794 132.019 36.8032 131.975 36.8111C131.893 36.8261 131.705 36.8502 131.482 36.775L132.122 34.8801C131.895 34.8035 131.703 34.8278 131.616 34.8436C131.57 34.8519 131.535 34.8617 131.519 34.8662C131.51 34.8686 131.504 34.8707 131.501 34.8714C131.496 34.873 131.502 34.8713 131.502 34.8711C131.507 34.8698 131.53 34.8627 131.561 34.8557C131.592 34.8485 131.643 34.8383 131.707 34.8335C131.772 34.8286 131.858 34.8288 131.955 34.8463C132.055 34.8643 132.159 34.8988 132.26 34.9547L131.29 36.7041ZM131.553 36.7959C131.554 36.7963 131.575 36.8019 131.595 36.8066C131.617 36.8119 131.652 36.8196 131.693 36.8264C131.779 36.8403 131.901 36.851 132.046 36.8306L131.765 34.8503C131.873 34.8351 131.961 34.8437 132.013 34.8522C132.038 34.8561 132.055 34.8602 132.061 34.8615C132.063 34.8621 132.067 34.8633 132.052 34.8592L131.553 36.7959ZM132.055 36.8292L148.386 34.3596L148.087 32.3821L131.756 34.8517L132.055 36.8292ZM148.377 34.361C148.836 34.296 149.224 33.9855 149.389 33.5524L147.52 32.8405C147.614 32.5945 147.833 32.418 148.097 32.3807L148.377 34.361ZM149.388 33.5564L155.331 18.1491L153.465 17.4293L147.522 32.8366L149.388 33.5564Z" fill="url(#paint1_linear)"/>
<path d="M-5 23L122 23" stroke="#5E2ED0" stroke-width="2"/>
<defs>
<linearGradient id="paint0_linear" x1="111.117" y1="5.42064" x2="114.889" y2="32.0906" gradientUnits="userSpaceOnUse">
<stop stop-color="#B038DA"/>
<stop offset="1" stop-color="#F79DED"/>
</linearGradient>
<linearGradient id="paint1_linear" x1="154.437" y1="17.8014" x2="121.336" y2="22.4841" gradientUnits="userSpaceOnUse">
<stop stop-color="#BA46DD"/>
<stop offset="1" stop-color="#5915E2"/>
</linearGradient>
</defs>
</svg>
