<svg width="46" height="47" viewBox="0 0 46 47" fill="none" xmlns="http://www.w3.org/2000/svg">
<path d="M44.2836 32.769L36.2309 28.7759L44.2854 24.7652C44.7236 24.547 45.0003 24.0996 44.9999 23.6102C44.9995 23.1208 44.722 22.6739 44.2835 22.4564L36.2308 18.4633L44.2853 14.4527C44.7226 14.2351 44.9991 13.7892 45 13.301C45.0009 12.8127 44.7257 12.3659 44.2893 12.1468L23.5784 1.74836C23.2145 1.56565 22.7855 1.56565 22.4216 1.74836L1.7107 12.1468C1.27431 12.3659 0.999228 12.8128 1 13.301C1.00078 13.7892 1.27741 14.2351 1.71448 14.4528L9.76913 18.4634L1.71646 22.4564C1.27792 22.6739 1.00043 23.1208 1.00009 23.6102C0.999658 24.0996 1.27646 24.547 1.71457 24.7652L9.76922 28.7759L1.71646 32.769C1.2787 32.986 1.00129 33.432 1.00009 33.9206C0.998884 34.4093 1.27406 34.8566 1.71079 35.0758L22.4217 45.4743C22.6037 45.5656 22.8019 45.6113 23 45.6113C23.1983 45.6113 23.3965 45.5656 23.5784 45.4743L44.2893 35.0758C44.7259 34.8566 45.0011 34.4093 45 33.9206C44.9987 33.432 44.7214 32.986 44.2836 32.769ZM5.17157 13.2941L23 4.34282L40.8285 13.2941C37.0915 15.1548 31.4057 17.986 23 22.1714C14.7333 18.0551 8.92153 15.1613 5.17157 13.2941ZM5.18592 23.6138L12.6648 19.9052L22.4255 24.7653C22.6064 24.8554 22.8032 24.9004 23 24.9004C23.1968 24.9004 23.3937 24.8554 23.5746 24.7653L33.3352 19.9052L40.8141 23.6138C39.6131 24.2117 23.6244 32.173 23 32.4839C22.3175 32.1441 6.40185 24.2192 5.18592 23.6138ZM23 42.8799L5.1763 33.931L12.6648 30.2177L22.4255 35.0779C22.6064 35.1679 22.8032 35.2129 23 35.2129C23.1968 35.2129 23.3937 35.1679 23.5746 35.0779L33.3352 30.2177L40.8237 33.931L23 42.8799Z" fill="url(#paint0_linear)" stroke="url(#paint1_linear)" stroke-width="2"/>
<defs>
<linearGradient id="paint0_linear" x1="-4.41819" y1="55.784" x2="35.8794" y2="55.784" gradientUnits="userSpaceOnUse">
<stop stop-color="#B038DA"/>
<stop offset="1" stop-color="#F79DED"/>
</linearGradient>
<linearGradient id="paint1_linear" x1="1" y1="14.6113" x2="51" y2="18.1113" gradientUnits="userSpaceOnUse">
<stop stop-color="#BE4BDE"/>
<stop offset="1" stop-color="#F498ED"/>
</linearGradient>
</defs>
</svg>
