<svg width="189" height="199" viewBox="0 0 189 199" fill="none" xmlns="http://www.w3.org/2000/svg">
<path fill-rule="evenodd" clip-rule="evenodd" d="M142.266 157.497L102.335 108.021L95.9006 100.04L122.856 31.2808L169.222 88.737L142.266 157.497ZM67.1665 169.723L20.8193 112.294L93.8565 101.672L105.995 116.708L140.212 159.105L67.1665 169.723ZM47.3614 40.9491L120.419 30.3256L110.75 54.9988L93.4545 99.0818L20.3972 109.705L47.3614 40.9491ZM123.477 27.8989C123.408 27.8032 123.291 27.7558 123.192 27.6867C123.109 27.6244 123.037 27.537 122.936 27.4964C122.832 27.4641 122.731 27.472 122.617 27.4648C122.498 27.4458 122.388 27.4018 122.264 27.4196L46.2176 38.4792C45.7637 38.539 45.3719 38.8568 45.1969 39.2911L17.1423 110.85C17.011 111.176 17.068 111.519 17.2041 111.836C17.2494 111.942 17.2746 112.049 17.3384 112.133V112.133L65.6009 171.936C65.895 172.297 66.3572 172.483 66.8228 172.419L142.857 161.364L142.869 161.359C143.098 161.325 143.313 161.227 143.488 161.084C143.5 161.079 143.515 161.066 143.542 161.047C143.58 161.024 143.567 160.961 143.597 160.934C143.713 160.816 143.826 160.706 143.89 160.547L171.936 88.9846C172.108 88.5586 172.034 88.063 171.74 87.7018L123.477 27.8989Z" fill="url(#paint0_linear)"/>
<path d="M142.266 157.497L141.488 158.125L142.569 159.464L143.197 157.862L142.266 157.497ZM102.335 108.021L101.557 108.649L101.557 108.649L102.335 108.021ZM95.9006 100.04L94.9695 99.6753L94.7576 100.216L95.1221 100.668L95.9006 100.04ZM122.856 31.2808L123.635 30.6528L122.554 29.3133L121.925 30.9158L122.856 31.2808ZM169.222 88.737L170.153 89.102L170.365 88.5611L170 88.109L169.222 88.737ZM67.1665 169.723L66.3883 170.351L66.7463 170.795L67.3104 170.713L67.1665 169.723ZM20.8193 112.294L20.6754 111.304L18.9394 111.557L20.0411 112.922L20.8193 112.294ZM93.8565 101.672L94.6346 101.044L94.2766 100.6L93.7126 100.682L93.8565 101.672ZM105.995 116.708L106.773 116.08L106.773 116.08L105.995 116.708ZM140.212 159.105L140.356 160.094L142.092 159.842L140.99 158.476L140.212 159.105ZM47.3614 40.9491L47.2175 39.9595L46.6426 40.0431L46.4304 40.584L47.3614 40.9491ZM120.419 30.3256L121.35 30.6905L121.978 29.0884L120.275 29.336L120.419 30.3256ZM110.75 54.9988L111.681 55.3641L111.681 55.3637L110.75 54.9988ZM93.4545 99.0818L93.5984 100.071L94.1733 99.9878L94.3854 99.447L93.4545 99.0818ZM20.3972 109.705L19.4662 109.34L18.8378 110.943L20.5411 110.695L20.3972 109.705ZM123.477 27.8989L122.666 28.483L122.682 28.5054L122.699 28.5269L123.477 27.8989ZM123.192 27.6867L122.588 28.4841L122.604 28.496L122.62 28.5072L123.192 27.6867ZM122.936 27.4964L123.31 26.5689L123.272 26.5534L123.232 26.5412L122.936 27.4964ZM122.617 27.4648L122.46 28.4524L122.507 28.4598L122.554 28.4628L122.617 27.4648ZM122.264 27.4196L122.122 26.4297L122.12 26.43L122.264 27.4196ZM46.2176 38.4792L46.3482 39.4708L46.3615 39.4688L46.2176 38.4792ZM45.1969 39.2911L44.2694 38.9173L44.2659 38.9261L45.1969 39.2911ZM17.1423 110.85L18.0698 111.224L18.0733 111.215L17.1423 110.85ZM17.2041 111.836L18.123 111.442L18.123 111.442L17.2041 111.836ZM65.6009 171.936L64.8227 172.564L64.8254 172.567L65.6009 171.936ZM66.8228 172.419L66.9605 173.409L66.9667 173.408L66.8228 172.419ZM142.857 161.364L143.001 162.353L143.128 162.335L143.246 162.285L142.857 161.364ZM142.869 161.359L142.722 160.37L142.597 160.388L142.48 160.437L142.869 161.359ZM143.488 161.084L143.099 160.163L142.966 160.219L142.855 160.31L143.488 161.084ZM143.542 161.047L143.026 160.19L143.003 160.205L142.98 160.22L143.542 161.047ZM143.597 160.934L144.258 161.685L144.285 161.66L144.311 161.634L143.597 160.934ZM143.89 160.547L144.817 160.921L144.821 160.912L143.89 160.547ZM171.936 88.9846L171.008 88.6108L171.005 88.6197L171.936 88.9846ZM171.74 87.7018L170.962 88.3298L170.964 88.3331L171.74 87.7018ZM143.044 156.868L103.114 107.393L101.557 108.649L141.488 158.125L143.044 156.868ZM103.114 107.393L96.679 99.4127L95.1221 100.668L101.557 108.649L103.114 107.393ZM96.8316 100.405L123.787 31.6458L121.925 30.9158L94.9695 99.6753L96.8316 100.405ZM122.078 31.9088L168.444 89.365L170 88.109L123.635 30.6528L122.078 31.9088ZM168.291 88.372L141.335 157.132L143.197 157.862L170.153 89.102L168.291 88.372ZM67.9447 169.095L21.5975 111.666L20.0411 112.922L66.3883 170.351L67.9447 169.095ZM20.9632 113.283L94.0004 102.661L93.7126 100.682L20.6754 111.304L20.9632 113.283ZM93.0784 102.3L105.217 117.336L106.773 116.08L94.6346 101.044L93.0784 102.3ZM105.217 117.336L139.434 159.733L140.99 158.476L106.773 116.08L105.217 117.336ZM140.068 158.115L67.0227 168.733L67.3104 170.713L140.356 160.094L140.068 158.115ZM47.5053 41.9387L120.563 31.3152L120.275 29.336L47.2175 39.9595L47.5053 41.9387ZM119.488 29.9608L109.819 54.634L111.681 55.3637L121.35 30.6905L119.488 29.9608ZM109.819 54.6336L92.5236 98.7165L94.3854 99.447L111.681 55.3641L109.819 54.6336ZM93.3106 98.0922L20.2533 108.716L20.5411 110.695L93.5984 100.071L93.3106 98.0922ZM21.3281 110.07L48.2924 41.3142L46.4304 40.584L19.4662 109.34L21.3281 110.07ZM124.289 27.3148C124.145 27.1146 123.973 26.9975 123.887 26.9419C123.845 26.9148 123.799 26.8874 123.784 26.8784C123.76 26.8643 123.759 26.8629 123.763 26.8662L122.62 28.5072C122.648 28.5268 122.674 28.5438 122.696 28.5577C122.718 28.5714 122.738 28.5836 122.753 28.5927C122.761 28.5971 122.769 28.6018 122.774 28.6052C122.78 28.6089 122.785 28.6118 122.79 28.6145C122.799 28.62 122.803 28.6226 122.805 28.6237C122.806 28.6247 122.803 28.6228 122.797 28.6186C122.792 28.6144 122.781 28.6068 122.769 28.596C122.743 28.5743 122.705 28.5373 122.666 28.483L124.289 27.3148ZM123.795 26.8892C123.806 26.8972 123.809 26.9004 123.793 26.8866C123.786 26.8807 123.748 26.8464 123.717 26.8205C123.65 26.7632 123.509 26.6492 123.31 26.5689L122.562 28.4239C122.511 28.4031 122.473 28.3804 122.451 28.3657C122.43 28.3517 122.419 28.3421 122.424 28.3463C122.427 28.3482 122.431 28.3516 122.438 28.3586C122.442 28.3621 122.446 28.3657 122.452 28.3705C122.457 28.375 122.463 28.3805 122.47 28.3862C122.482 28.3975 122.499 28.4124 122.519 28.4285C122.538 28.4447 122.561 28.4638 122.588 28.4841L123.795 26.8892ZM123.232 26.5412C123.07 26.4909 122.928 26.4779 122.837 26.4728C122.794 26.4703 122.751 26.4693 122.729 26.4686C122.702 26.4679 122.69 26.4674 122.68 26.4668L122.554 28.4628C122.601 28.4658 122.645 28.467 122.672 28.4678C122.704 28.4687 122.715 28.4691 122.724 28.4696C122.738 28.4704 122.698 28.4696 122.64 28.4516L123.232 26.5412ZM122.774 26.4772C122.777 26.4777 122.774 26.4774 122.748 26.4716C122.731 26.4677 122.68 26.4559 122.632 26.4465C122.525 26.4259 122.342 26.3982 122.122 26.4297L122.406 28.4095C122.31 28.4232 122.244 28.4086 122.253 28.4103C122.255 28.4107 122.259 28.4116 122.269 28.4138C122.274 28.4149 122.28 28.4161 122.286 28.4176C122.293 28.419 122.301 28.421 122.309 28.4228C122.341 28.43 122.397 28.4423 122.46 28.4524L122.774 26.4772ZM122.12 26.43L46.0737 37.4896L46.3615 39.4688L122.408 28.4092L122.12 26.43ZM46.087 37.4878C45.2525 37.5977 44.5703 38.1706 44.2694 38.9173L46.1245 39.6649C46.1736 39.543 46.275 39.4803 46.3482 39.4707L46.087 37.4878ZM44.2659 38.9261L16.2113 110.485L18.0733 111.215L46.128 39.6561L44.2659 38.9261ZM16.2148 110.476C15.9459 111.144 16.0926 111.782 16.2851 112.231L18.123 111.442C18.0853 111.354 18.0721 111.293 18.069 111.257C18.0675 111.241 18.0683 111.232 18.0688 111.228C18.0692 111.225 18.0695 111.225 18.0698 111.224L16.2148 110.476ZM16.2851 112.231C16.2862 112.233 16.2892 112.24 16.2977 112.263C16.3037 112.279 16.3192 112.322 16.3342 112.36C16.3654 112.439 16.4275 112.587 16.5424 112.738L18.1345 111.528C18.1614 111.563 18.1781 111.593 18.1869 111.61C18.1951 111.626 18.1979 111.634 18.1944 111.625C18.1928 111.621 18.1905 111.615 18.1868 111.605C18.1849 111.6 18.1829 111.595 18.1805 111.588C18.1783 111.582 18.1755 111.575 18.1727 111.567C18.1618 111.538 18.1446 111.492 18.123 111.442L16.2851 112.231ZM16.5602 112.761L64.8228 172.564L66.3791 171.308L18.1166 111.505L16.5602 112.761ZM64.8254 172.567C65.3369 173.195 66.1435 173.523 66.9605 173.409L66.6851 171.428C66.5708 171.444 66.4531 171.399 66.3765 171.305L64.8254 172.567ZM66.9667 173.408L143.001 162.353L142.713 160.374L66.6789 171.429L66.9667 173.408ZM143.246 162.285L143.258 162.28L142.48 160.437L142.469 160.442L143.246 162.285ZM143.016 162.348C143.428 162.287 143.81 162.112 144.121 161.858L142.855 160.31C142.816 160.342 142.767 160.363 142.722 160.37L143.016 162.348ZM143.877 162.005C143.952 161.974 144.008 161.939 144.036 161.921C144.065 161.903 144.088 161.886 144.095 161.881C144.12 161.863 144.106 161.873 144.104 161.875L142.98 160.22C142.962 160.232 142.948 160.242 142.937 160.25C142.932 160.254 142.928 160.257 142.926 160.258C142.923 160.261 142.923 160.261 142.923 160.261C142.923 160.26 142.927 160.258 142.932 160.254C142.938 160.25 142.947 160.244 142.959 160.236C142.98 160.223 143.03 160.192 143.099 160.163L143.877 162.005ZM144.057 161.905C144.276 161.773 144.398 161.592 144.463 161.458C144.494 161.394 144.513 161.338 144.524 161.301C144.536 161.265 144.543 161.234 144.545 161.223C144.551 161.201 144.547 161.217 144.546 161.22C144.544 161.229 144.536 161.258 144.523 161.296C144.498 161.367 144.428 161.535 144.258 161.685L142.937 160.183C142.844 160.265 142.777 160.353 142.73 160.43C142.685 160.506 142.657 160.575 142.639 160.623C142.622 160.671 142.612 160.711 142.607 160.731C142.604 160.742 142.602 160.751 142.601 160.755C142.6 160.757 142.6 160.76 142.6 160.76C142.599 160.761 142.599 160.761 142.6 160.761C142.6 160.761 142.604 160.741 142.612 160.715C142.62 160.689 142.635 160.644 142.661 160.589C142.688 160.534 142.729 160.464 142.79 160.392C142.853 160.317 142.931 160.248 143.026 160.19L144.057 161.905ZM144.311 161.634C144.393 161.551 144.665 161.299 144.817 160.921L142.962 160.173C142.978 160.135 142.995 160.116 142.988 160.123C142.984 160.129 142.975 160.139 142.957 160.158C142.937 160.179 142.917 160.199 142.883 160.234L144.311 161.634ZM144.821 160.912L172.867 89.3495L171.005 88.6197L142.959 160.182L144.821 160.912ZM172.864 89.3583C173.172 88.594 173.039 87.7134 172.515 87.0705L170.964 88.3331C171.029 88.4125 171.044 88.5233 171.009 88.6108L172.864 89.3583ZM172.518 87.0738L124.256 27.2709L122.699 28.5269L170.962 88.3298L172.518 87.0738Z" fill="url(#paint1_linear)"/>
<defs>
<linearGradient id="paint0_linear" x1="-27.0748" y1="173.549" x2="89.1855" y2="220.398" gradientUnits="userSpaceOnUse">
<stop stop-color="#B038DA"/>
<stop offset="1" stop-color="#F79DED"/>
</linearGradient>
<linearGradient id="paint1_linear" x1="123.617" y1="27.7707" x2="65.471" y2="172.064" gradientUnits="userSpaceOnUse">
<stop stop-color="#BA46DD"/>
<stop offset="1" stop-color="#F89EEE"/>
</linearGradient>
</defs>
</svg>
