<svg width="50" height="53" viewBox="0 0 50 53" fill="none" xmlns="http://www.w3.org/2000/svg">
<path fill-rule="evenodd" clip-rule="evenodd" d="M36.5683 40.0069L27.0532 28.2175L25.5199 26.3158L31.9431 9.93116L42.9915 23.6223L36.5683 40.0069ZM18.6729 42.9204L7.62889 29.2356L25.0328 26.7046L27.9253 30.2875L36.0788 40.3901L18.6729 42.9204ZM13.9536 12.235L31.3623 9.70359L29.0583 15.5829L24.937 26.0874L7.52829 28.6188L13.9536 12.235ZM32.0911 9.12521C32.0747 9.1024 32.0467 9.09111 32.0231 9.07465C32.0034 9.0598 31.9862 9.03898 31.9622 9.0293C31.9374 9.02161 31.9133 9.02349 31.8861 9.02177C31.8576 9.01725 31.8316 9.00676 31.802 9.011L13.681 11.6464C13.5729 11.6606 13.4795 11.7364 13.4378 11.8398L6.75271 28.8915C6.72144 28.9691 6.73502 29.051 6.76744 29.1265C6.77824 29.1517 6.78424 29.1772 6.79945 29.1972V29.1972L18.2999 43.4475C18.3699 43.5336 18.48 43.578 18.591 43.5626L36.7091 40.9284L36.7119 40.9272C36.7664 40.9191 36.8177 40.8958 36.8594 40.8617C36.8622 40.8605 36.8658 40.8573 36.8722 40.853C36.8814 40.8474 36.8782 40.8323 36.8854 40.8259C36.9131 40.7977 36.9399 40.7715 36.9552 40.7337L43.6383 23.6812C43.6792 23.5797 43.6616 23.4616 43.5915 23.3755L32.0911 9.12521Z" fill="url(#paint0_linear)"/>
<path d="M36.5683 40.0069L35.0119 41.263C35.4595 41.8175 36.1682 42.092 36.8725 41.9836C37.5768 41.8752 38.1702 41.4003 38.4303 40.7369L36.5683 40.0069ZM27.0532 28.2175L25.4963 29.4728L25.4969 29.4736L27.0532 28.2175ZM25.5199 26.3158L23.6578 25.5858C23.3958 26.2543 23.5122 27.0121 23.9629 27.5711L25.5199 26.3158ZM31.9431 9.93116L33.4996 8.67516C33.0521 8.1206 32.3433 7.84605 31.639 7.95443C30.9346 8.0628 30.3412 8.53775 30.0811 9.20119L31.9431 9.93116ZM42.9915 23.6223L44.8536 24.3523C45.1158 23.6834 44.9991 22.9254 44.548 22.3663L42.9915 23.6223ZM18.6729 42.9204L17.1165 44.1764C17.5603 44.7263 18.2613 45.0012 18.9606 44.8996L18.6729 42.9204ZM7.62889 29.2356L7.34106 27.2565C6.63008 27.3599 6.02919 27.8367 5.76692 28.5056C5.50464 29.1744 5.6213 29.9326 6.07251 30.4917L7.62889 29.2356ZM25.0328 26.7046L26.589 25.4483C26.1451 24.8985 25.4442 24.6237 24.745 24.7254L25.0328 26.7046ZM27.9253 30.2875L29.4817 29.0314L29.4815 29.0312L27.9253 30.2875ZM36.0788 40.3901L36.3665 42.3693C37.0775 42.266 37.6785 41.7891 37.9408 41.1202C38.2031 40.4513 38.0864 39.6931 37.6352 39.134L36.0788 40.3901ZM13.9536 12.235L13.6658 10.2559C12.9548 10.3592 12.3539 10.836 12.0916 11.5048L13.9536 12.235ZM31.3623 9.70359L33.2244 10.4333C33.4844 9.76995 33.3718 9.01837 32.9289 8.46028C32.4859 7.90219 31.7796 7.62188 31.0745 7.72441L31.3623 9.70359ZM29.0583 15.5829L30.9201 16.3134L30.9204 16.3127L29.0583 15.5829ZM24.937 26.0874L25.2248 28.0666C25.9357 27.9632 26.5365 27.4865 26.7988 26.8178L24.937 26.0874ZM7.52829 28.6188L5.66636 27.8886C5.40619 28.552 5.51865 29.3037 5.96156 29.8619C6.40447 30.4202 7.11093 30.7006 7.81609 30.598L7.52829 28.6188ZM32.0911 9.12521L30.4678 10.2935C30.4893 10.3233 30.5116 10.3526 30.5347 10.3813L32.0911 9.12521ZM32.0231 9.07465L30.8163 10.6695C30.8371 10.6853 30.8583 10.7007 30.8798 10.7157L32.0231 9.07465ZM31.9622 9.0293L32.7097 7.17425C32.6586 7.15366 32.6067 7.13519 32.5541 7.11889L31.9622 9.0293ZM31.8861 9.02177L31.5722 10.997C31.6343 11.0069 31.697 11.0138 31.7598 11.0178L31.8861 9.02177ZM31.802 9.011L31.5183 7.03122L31.5141 7.03183L31.802 9.011ZM13.681 11.6464L13.9422 13.6293C13.9511 13.6281 13.96 13.6269 13.9689 13.6256L13.681 11.6464ZM13.4378 11.8398L11.5828 11.0923C11.5804 11.0981 11.5781 11.104 11.5758 11.1098L13.4378 11.8398ZM6.75271 28.8915L8.60776 29.6391C8.61011 29.6332 8.61243 29.6274 8.61473 29.6215L6.75271 28.8915ZM6.76744 29.1265L8.6053 28.3376L8.6053 28.3376L6.76744 29.1265ZM18.2999 43.4475L16.7434 44.7036L16.7488 44.7102L18.2999 43.4475ZM18.591 43.5626L18.8665 45.5435L18.8788 45.5417L18.591 43.5626ZM36.7091 40.9284L36.9969 42.9075C37.1652 42.8831 37.3297 42.8372 37.4864 42.7711L36.7091 40.9284ZM36.7119 40.9272L36.4172 38.949C36.2513 38.9737 36.0892 39.0192 35.9347 39.0844L36.7119 40.9272ZM36.8594 40.8617L36.082 39.019C35.9056 39.0933 35.7409 39.1926 35.5928 39.3138L36.8594 40.8617ZM36.8722 40.853L35.8418 39.1388C35.81 39.1579 35.7788 39.1779 35.7481 39.1988L36.8722 40.853ZM36.8854 40.8259L38.2066 42.3274C38.2433 42.2951 38.2788 42.2615 38.3131 42.2266L36.8854 40.8259ZM36.9552 40.7337L38.8102 41.4812C38.8126 41.4753 38.8149 41.4694 38.8173 41.4635L36.9552 40.7337ZM43.6383 23.6812L41.7832 22.9337C41.7808 22.9396 41.7785 22.9455 41.7762 22.9514L43.6383 23.6812ZM43.5915 23.3755L42.0351 24.6316L42.0405 24.6382L43.5915 23.3755ZM38.1246 38.7508L28.6096 26.9614L25.4969 29.4736L35.0119 41.263L38.1246 38.7508ZM28.6102 26.9621L27.0768 25.0604L23.9629 27.5711L25.4963 29.4728L28.6102 26.9621ZM27.3819 27.0457L33.8052 10.6611L30.0811 9.20119L23.6578 25.5858L27.3819 27.0457ZM30.3867 11.1872L41.4351 24.8783L44.548 22.3663L33.4996 8.67516L30.3867 11.1872ZM41.1295 22.8923L34.7063 39.2769L38.4303 40.7369L44.8536 24.3523L41.1295 22.8923ZM20.2293 41.6643L9.18528 27.9796L6.07251 30.4917L17.1165 44.1764L20.2293 41.6643ZM7.91673 31.2148L25.3206 28.6837L24.745 24.7254L7.34106 27.2565L7.91673 31.2148ZM23.4766 27.9609L26.3691 31.5438L29.4815 29.0312L26.589 25.4483L23.4766 27.9609ZM26.369 31.5436L34.5224 41.6462L37.6352 39.134L29.4817 29.0314L26.369 31.5436ZM35.7911 38.4109L18.3852 40.9412L18.9606 44.8996L36.3665 42.3693L35.7911 38.4109ZM14.2414 14.2142L31.6501 11.6828L31.0745 7.72441L13.6658 10.2559L14.2414 14.2142ZM29.5002 8.97386L27.1961 14.8532L30.9204 16.3127L33.2244 10.4333L29.5002 8.97386ZM27.1964 14.8525L23.0752 25.3569L26.7988 26.8178L30.9201 16.3134L27.1964 14.8525ZM24.6492 24.1082L7.2405 26.6396L7.81609 30.598L25.2248 28.0666L24.6492 24.1082ZM9.39023 29.349L15.8155 12.9652L12.0916 11.5048L5.66636 27.8886L9.39023 29.349ZM33.7144 7.95695C33.487 7.64088 33.2261 7.46975 33.1423 7.41581C33.1024 7.39015 33.0557 7.36253 33.0715 7.37202C33.0726 7.37269 33.0837 7.37933 33.0986 7.38871C33.114 7.39839 33.1377 7.41369 33.1663 7.43364L30.8798 10.7157C30.9446 10.7608 30.9999 10.7938 31.0112 10.8005C31.0394 10.8175 31.0052 10.7972 30.9773 10.7793C30.9175 10.7408 30.6789 10.5867 30.4678 10.2935L33.7144 7.95695ZM33.2298 7.47976C33.2871 7.5231 33.3282 7.55971 33.332 7.56309C33.3536 7.58217 33.3123 7.54544 33.2872 7.52417C33.2242 7.47077 33.0198 7.29919 32.7097 7.17425L31.2147 10.8843C30.9286 10.7691 30.7448 10.6128 30.7013 10.5759C30.686 10.5629 30.6542 10.5348 30.6853 10.5622C30.6986 10.574 30.7492 10.6188 30.8163 10.6695L33.2298 7.47976ZM32.5541 7.11889C32.3215 7.04684 32.1278 7.03156 32.0378 7.02648C32.015 7.02519 31.9961 7.02447 31.9843 7.02406C31.9783 7.02385 31.9732 7.0237 31.9699 7.0236C31.9682 7.02355 31.9667 7.02351 31.9657 7.02348C31.9642 7.02344 31.9643 7.02344 31.9635 7.02342C31.9567 7.02322 31.9811 7.02378 32.0123 7.02576L31.7598 11.0178C31.8047 11.0206 31.8423 11.0216 31.8485 11.0218C31.8649 11.0222 31.8398 11.0217 31.8123 11.0201C31.7473 11.0164 31.578 11.0041 31.3703 10.9397L32.5541 7.11889ZM32.2 7.04656C32.2319 7.05163 32.2577 7.05661 32.2747 7.06007C32.291 7.06339 32.303 7.06609 32.304 7.06634C32.3207 7.07008 32.2695 7.05821 32.2234 7.04932C32.1117 7.02777 31.8487 6.98388 31.5183 7.03122L32.0856 10.9908C31.7849 11.0339 31.5497 10.9931 31.4656 10.9769C31.4333 10.9706 31.3958 10.962 31.4262 10.9688C31.4392 10.9717 31.4983 10.9852 31.5722 10.997L32.2 7.04656ZM31.5141 7.03183L13.3932 9.66721L13.9689 13.6256L32.0898 10.9902L31.5141 7.03183ZM13.4198 9.66351C12.5504 9.77804 11.8763 10.364 11.5828 11.0923L15.2929 12.5874C15.0828 13.1087 14.5953 13.5432 13.9422 13.6293L13.4198 9.66351ZM11.5758 11.1098L4.8907 28.1615L8.61473 29.6215L15.2998 12.5698L11.5758 11.1098ZM4.89767 28.144C4.59115 28.9047 4.78412 29.5764 4.92958 29.9153L8.6053 28.3376C8.68593 28.5255 8.85173 29.0336 8.60776 29.6391L4.89767 28.144ZM4.92958 29.9153C4.91174 29.8738 4.89998 29.8416 4.89989 29.8414C4.89462 29.8272 4.90914 29.8669 4.92153 29.8982C4.94877 29.9672 5.03382 30.1794 5.20734 30.4077L8.39157 27.9868C8.54988 28.195 8.62432 28.3844 8.64205 28.4293C8.64969 28.4487 8.65973 28.476 8.64983 28.4493C8.6451 28.4365 8.62853 28.3918 8.6053 28.3376L4.92958 29.9153ZM5.24306 30.4533L16.7435 44.7036L19.8562 42.1915L8.35584 27.9412L5.24306 30.4533ZM16.7488 44.7102C17.2537 45.3304 18.0527 45.6567 18.8665 45.5435L18.3155 41.5816C18.9074 41.4993 19.4861 41.7368 19.8509 42.1849L16.7488 44.7102ZM18.8788 45.5417L36.9969 42.9075L36.4214 38.9492L18.3033 41.5834L18.8788 45.5417ZM37.4864 42.7711L37.4892 42.77L35.9347 39.0844L35.9319 39.0856L37.4864 42.7711ZM37.0067 42.9053C37.4271 42.8427 37.8123 42.6662 38.1259 42.4095L35.5928 39.3138C35.8231 39.1254 36.1057 38.9954 36.4172 38.949L37.0067 42.9053ZM37.6368 42.7044C37.7822 42.6431 37.8887 42.5776 37.9384 42.5459C37.99 42.5128 38.0294 42.4842 38.0368 42.4789C38.0707 42.4544 38.0256 42.4873 37.9963 42.5072L35.7481 39.1988C35.7124 39.223 35.6623 39.2597 35.6921 39.2381C35.6975 39.2343 35.7349 39.2069 35.7849 39.175C35.833 39.1443 35.938 39.0797 36.082 39.019L37.6368 42.7044ZM37.9026 42.5671C38.1036 42.4463 38.27 42.2985 38.4031 42.1409C38.5332 41.9869 38.6205 41.8366 38.6788 41.7156C38.7362 41.5966 38.7709 41.4944 38.7908 41.4294C38.8104 41.3657 38.8224 41.3145 38.8254 41.3019C38.8262 41.2985 38.8293 41.2855 38.8272 41.2945C38.8265 41.2972 38.8237 41.3092 38.8198 41.3246C38.8127 41.353 38.7951 41.4209 38.7649 41.5052C38.7082 41.664 38.5611 42.0155 38.2066 42.3274L35.5643 39.3244C35.2061 39.6395 35.0568 39.9953 34.9983 40.1588C34.9673 40.2456 34.949 40.316 34.9412 40.347C34.9369 40.3637 34.9338 40.377 34.9329 40.381C34.9305 40.3913 34.9332 40.3796 34.9337 40.3776C34.9361 40.3676 34.9475 40.3191 34.9662 40.2579C34.9854 40.1954 35.0192 40.0957 35.0755 39.979C35.1327 39.8603 35.2187 39.7121 35.3471 39.56C35.4786 39.4043 35.6431 39.2583 35.8418 39.1388L37.9026 42.5671ZM38.3131 42.2266C38.314 42.2257 38.3145 42.2251 38.317 42.2226C38.3189 42.2206 38.3221 42.2174 38.3257 42.2137C38.3327 42.2066 38.3441 42.1948 38.3574 42.1807C38.3837 42.1531 38.4263 42.107 38.4746 42.0478C38.5751 41.9246 38.7074 41.7363 38.8102 41.4812L35.1001 39.9862C35.1876 39.769 35.2989 39.6127 35.3753 39.5191C35.4349 39.446 35.4987 39.3835 35.4578 39.4252L38.3131 42.2266ZM38.8173 41.4635L45.5004 24.411L41.7762 22.9514L35.0931 40.0039L38.8173 41.4635ZM45.4933 24.4287C45.807 23.6504 45.6714 22.7625 45.1426 22.1129L42.0405 24.6382C41.6518 24.1607 41.5513 23.5091 41.7832 22.9337L45.4933 24.4287ZM45.1479 22.1195L33.6475 7.86916L30.5347 10.3813L42.0351 24.6316L45.1479 22.1195Z" fill="url(#paint1_linear)"/>
<defs>
<linearGradient id="paint0_linear" x1="-3.78369" y1="43.8318" x2="23.9198" y2="54.9955" gradientUnits="userSpaceOnUse">
<stop stop-color="#B038DA"/>
<stop offset="1" stop-color="#F79DED"/>
</linearGradient>
<linearGradient id="paint1_linear" x1="32.1244" y1="9.09466" x2="18.2689" y2="43.4782" gradientUnits="userSpaceOnUse">
<stop stop-color="#BA46DD"/>
<stop offset="1" stop-color="#F89EEE"/>
</linearGradient>
</defs>
</svg>
