<svg width="50" height="53" viewBox="0 0 50 53" fill="none" xmlns="http://www.w3.org/2000/svg">
<path fill-rule="evenodd" clip-rule="evenodd" d="M36.4237 40.0069L26.9087 28.2175L25.3753 26.3158L31.7986 9.93116L42.847 23.6223L36.4237 40.0069ZM18.5284 42.9204L7.48436 29.2356L24.8883 26.7046L27.7808 30.2875L35.9343 40.3901L18.5284 42.9204ZM13.809 12.235L31.2177 9.70359L28.9137 15.5829L24.7925 26.0874L7.38376 28.6188L13.809 12.235ZM31.9466 9.12521C31.9302 9.1024 31.9021 9.09111 31.8785 9.07465C31.8589 9.0598 31.8417 9.03898 31.8177 9.0293C31.7928 9.02161 31.7688 9.02349 31.7416 9.02177C31.7131 9.01725 31.6871 9.00676 31.6574 9.011L13.5365 11.6464C13.4283 11.6606 13.335 11.7364 13.2933 11.8398L6.60818 28.8915C6.57691 28.9691 6.59049 29.051 6.62291 29.1265C6.63371 29.1517 6.63971 29.1772 6.65492 29.1972L18.1553 43.4475C18.2254 43.5336 18.3355 43.578 18.4465 43.5626L36.5646 40.9284L36.5674 40.9272C36.6219 40.9191 36.6732 40.8958 36.7148 40.8617C36.7176 40.8605 36.7213 40.8573 36.7277 40.853C36.7369 40.8474 36.7337 40.8323 36.7409 40.8259C36.7685 40.7977 36.7954 40.7715 36.8106 40.7337L43.4937 23.6812C43.5346 23.5797 43.5171 23.4616 43.447 23.3755L31.9466 9.12521Z" fill="url(#paint0_linear)"/>
<path d="M36.4237 40.0069L34.8674 41.263C35.3149 41.8175 36.0237 42.092 36.728 41.9836C37.4323 41.8752 38.0257 41.4003 38.2858 40.7369L36.4237 40.0069ZM26.9087 28.2175L25.3517 29.4728L25.3523 29.4736L26.9087 28.2175ZM25.3753 26.3158L23.5133 25.5858C23.2512 26.2543 23.3677 27.0121 23.8184 27.5711L25.3753 26.3158ZM31.7986 9.93116L33.355 8.67516C32.9075 8.1206 32.1987 7.84605 31.4944 7.95443C30.7901 8.0628 30.1967 8.53775 29.9366 9.20119L31.7986 9.93116ZM42.847 23.6223L44.709 24.3523C44.9712 23.6834 44.8546 22.9254 44.4034 22.3663L42.847 23.6223ZM18.5284 42.9204L16.972 44.1764C17.4158 44.7263 18.1168 45.0012 18.8161 44.8996L18.5284 42.9204ZM7.48436 29.2356L7.19653 27.2565C6.48555 27.3599 5.88466 27.8367 5.62238 28.5056C5.36011 29.1744 5.47677 29.9326 5.92798 30.4917L7.48436 29.2356ZM24.8883 26.7046L26.4444 25.4483C26.0006 24.8985 25.2996 24.6237 24.6004 24.7254L24.8883 26.7046ZM27.7808 30.2875L29.3371 29.0314L29.337 29.0312L27.7808 30.2875ZM35.9343 40.3901L36.222 42.3693C36.933 42.266 37.5339 41.7891 37.7962 41.1202C38.0585 40.4513 37.9419 39.6931 37.4906 39.134L35.9343 40.3901ZM13.809 12.235L13.5212 10.2559C12.8103 10.3592 12.2094 10.836 11.9471 11.5048L13.809 12.235ZM31.2177 9.70359L33.0799 10.4333C33.3398 9.76995 33.2272 9.01837 32.7843 8.46028C32.3414 7.90219 31.635 7.62188 30.9299 7.72441L31.2177 9.70359ZM28.9137 15.5829L30.7756 16.3134L30.7758 16.3127L28.9137 15.5829ZM24.7925 26.0874L25.0803 28.0666C25.7911 27.9632 26.392 27.4865 26.6543 26.8178L24.7925 26.0874ZM7.38376 28.6188L5.52183 27.8886C5.26166 28.552 5.37412 29.3037 5.81703 29.8619C6.25994 30.4202 6.9664 30.7006 7.67156 30.598L7.38376 28.6188ZM31.9466 9.12521L30.3233 10.2935C30.3448 10.3233 30.3671 10.3526 30.3902 10.3813L31.9466 9.12521ZM31.8785 9.07465L30.6717 10.6695C30.6926 10.6853 30.7138 10.7007 30.7352 10.7157L31.8785 9.07465ZM31.8177 9.0293L32.5652 7.17425C32.5141 7.15366 32.4622 7.13519 32.4095 7.11889L31.8177 9.0293ZM31.7416 9.02177L31.4276 10.997C31.4898 11.0069 31.5524 11.0138 31.6153 11.0178L31.7416 9.02177ZM31.6574 9.011L31.3738 7.03122L31.3696 7.03183L31.6574 9.011ZM13.5365 11.6464L13.7977 13.6293C13.8066 13.6281 13.8155 13.6269 13.8243 13.6256L13.5365 11.6464ZM13.2933 11.8398L11.4382 11.0923C11.4359 11.0981 11.4336 11.104 11.4313 11.1098L13.2933 11.8398ZM6.60818 28.8915L8.46323 29.6391C8.46558 29.6332 8.4679 29.6274 8.4702 29.6215L6.60818 28.8915ZM6.62291 29.1265L8.46077 28.3376L8.46077 28.3376L6.62291 29.1265ZM18.1553 43.4475L16.5989 44.7036L16.6043 44.7102L18.1553 43.4475ZM18.4465 43.5626L18.722 45.5435L18.7342 45.5417L18.4465 43.5626ZM36.5646 40.9284L36.8524 42.9075C37.0207 42.8831 37.1852 42.8372 37.3419 42.7711L36.5646 40.9284ZM36.5674 40.9272L36.2726 38.949C36.1068 38.9737 35.9447 39.0192 35.7902 39.0844L36.5674 40.9272ZM36.7148 40.8617L35.9374 39.019C35.7611 39.0933 35.5964 39.1926 35.4483 39.3138L36.7148 40.8617ZM36.7277 40.853L35.6972 39.1388C35.6655 39.1579 35.6342 39.1779 35.6036 39.1988L36.7277 40.853ZM36.7409 40.8259L38.0621 42.3274C38.0988 42.2951 38.1343 42.2615 38.1685 42.2266L36.7409 40.8259ZM36.8106 40.7337L38.6657 41.4812C38.6681 41.4753 38.6704 41.4694 38.6727 41.4635L36.8106 40.7337ZM43.4937 23.6812L41.6387 22.9337C41.6363 22.9396 41.634 22.9455 41.6316 22.9514L43.4937 23.6812ZM43.447 23.3755L41.8906 24.6316L41.896 24.6382L43.447 23.3755ZM37.9801 38.7508L28.465 26.9614L25.3523 29.4736L34.8674 41.263L37.9801 38.7508ZM28.4656 26.9621L26.9323 25.0604L23.8184 27.5711L25.3517 29.4728L28.4656 26.9621ZM27.2374 27.0457L33.6606 10.6611L29.9366 9.20119L23.5133 25.5858L27.2374 27.0457ZM30.2422 11.1872L41.2906 24.8783L44.4034 22.3663L33.355 8.67516L30.2422 11.1872ZM40.985 22.8923L34.5617 39.2769L38.2858 40.7369L44.709 24.3523L40.985 22.8923ZM20.0848 41.6643L9.04075 27.9796L5.92798 30.4917L16.972 44.1764L20.0848 41.6643ZM7.7722 31.2148L25.1761 28.6837L24.6004 24.7254L7.19653 27.2565L7.7722 31.2148ZM23.3321 27.9609L26.2246 31.5438L29.337 29.0312L26.4444 25.4483L23.3321 27.9609ZM26.2244 31.5436L34.3779 41.6462L37.4906 39.134L29.3371 29.0314L26.2244 31.5436ZM35.6466 38.4109L18.2407 40.9412L18.8161 44.8996L36.222 42.3693L35.6466 38.4109ZM14.0968 14.2142L31.5055 11.6828L30.9299 7.72441L13.5212 10.2559L14.0968 14.2142ZM29.3556 8.97386L27.0516 14.8532L30.7758 16.3127L33.0799 10.4333L29.3556 8.97386ZM27.0519 14.8525L22.9306 25.3569L26.6543 26.8178L30.7756 16.3134L27.0519 14.8525ZM24.5047 24.1082L7.09596 26.6396L7.67156 30.598L25.0803 28.0666L24.5047 24.1082ZM9.2457 29.349L15.671 12.9652L11.9471 11.5048L5.52183 27.8886L9.2457 29.349ZM33.5699 7.95695C33.3424 7.64088 33.0815 7.46975 32.9977 7.41581C32.9579 7.39015 32.9112 7.36253 32.927 7.37202C32.9281 7.37269 32.9392 7.37933 32.9541 7.38871C32.9694 7.39839 32.9932 7.41369 33.0218 7.43364L30.7352 10.7157C30.8001 10.7608 30.8554 10.7938 30.8666 10.8005C30.8948 10.8175 30.8606 10.7972 30.8328 10.7793C30.773 10.7408 30.5343 10.5867 30.3233 10.2935L33.5699 7.95695ZM33.0853 7.47976C33.1426 7.5231 33.1836 7.55971 33.1875 7.56309C33.2091 7.58217 33.1678 7.54544 33.1427 7.52417C33.0797 7.47077 32.8752 7.29919 32.5652 7.17425L31.0701 10.8844C30.7841 10.7691 30.6003 10.6128 30.5568 10.5759C30.5414 10.5629 30.5096 10.5348 30.5407 10.5622C30.5541 10.574 30.6047 10.6188 30.6717 10.6695L33.0853 7.47976ZM32.4095 7.11889C32.177 7.04684 31.9832 7.03156 31.8933 7.02648C31.8704 7.02519 31.8516 7.02447 31.8398 7.02406C31.8338 7.02385 31.8287 7.0237 31.8254 7.0236C31.8237 7.02355 31.8222 7.02351 31.8212 7.02348C31.8197 7.02344 31.8198 7.02344 31.8189 7.02342C31.8122 7.02322 31.8366 7.02378 31.8678 7.02576L31.6153 11.0178C31.6602 11.0206 31.6977 11.0216 31.7039 11.0218C31.7204 11.0222 31.6953 11.0217 31.6678 11.0201C31.6028 11.0164 31.4335 11.0041 31.2258 10.9397L32.4095 7.11889ZM32.0555 7.04656C32.0874 7.05163 32.1132 7.05661 32.1302 7.06007C32.1465 7.06339 32.1584 7.06609 32.1595 7.06634C32.1761 7.07008 32.1249 7.05821 32.0789 7.04932C31.9672 7.02777 31.7042 6.98388 31.3738 7.03122L31.9411 10.9908C31.6404 11.0339 31.4052 10.9931 31.321 10.9769C31.2887 10.9706 31.2512 10.962 31.2817 10.9688C31.2947 10.9717 31.3538 10.9852 31.4276 10.997L32.0555 7.04656ZM31.3696 7.03183L13.2487 9.66721L13.8243 13.6256L31.9453 10.9902L31.3696 7.03183ZM13.2753 9.66351C12.4059 9.77804 11.7317 10.364 11.4382 11.0923L15.1483 12.5874C14.9382 13.1087 14.4508 13.5432 13.7977 13.6293L13.2753 9.66351ZM11.4313 11.1098L4.74617 28.1615L8.4702 29.6215L15.1553 12.5698L11.4313 11.1098ZM4.75314 28.144C4.44662 28.9047 4.63959 29.5764 4.78504 29.9153L8.46077 28.3376C8.5414 28.5255 8.7072 29.0336 8.46323 29.6391L4.75314 28.144ZM4.78504 29.9153C4.76721 29.8738 4.75545 29.8416 4.75536 29.8414C4.75009 29.8272 4.76461 29.8669 4.777 29.8982C4.80424 29.9672 4.88928 30.1794 5.06281 30.4077L8.24704 27.9868C8.40535 28.195 8.47978 28.3844 8.49752 28.4293C8.50516 28.4487 8.5152 28.476 8.5053 28.4493C8.50057 28.4365 8.484 28.3918 8.46077 28.3376L4.78504 29.9153ZM5.09853 30.4533L16.5989 44.7036L19.7117 42.1915L8.21131 27.9412L5.09853 30.4533ZM16.6043 44.7102C17.1092 45.3304 17.9081 45.6567 18.7219 45.5435L18.171 41.5816C18.7629 41.4993 19.3416 41.7368 19.7064 42.1849L16.6043 44.7102ZM18.7342 45.5417L36.8524 42.9075L36.2769 38.9492L18.1587 41.5834L18.7342 45.5417ZM37.3419 42.7711L37.3447 42.77L35.7902 39.0844L35.7874 39.0856L37.3419 42.7711ZM36.8622 42.9053C37.2826 42.8427 37.6678 42.6662 37.9814 42.4095L35.4483 39.3138C35.6786 39.1254 35.9612 38.9954 36.2726 38.949L36.8622 42.9053ZM37.4923 42.7044C37.6377 42.6431 37.7442 42.5776 37.7938 42.5459C37.8455 42.5128 37.8848 42.4842 37.8922 42.4789C37.9261 42.4544 37.881 42.4873 37.8518 42.5072L35.6036 39.1988C35.5679 39.223 35.5178 39.2597 35.5476 39.2381C35.5529 39.2343 35.5904 39.2069 35.6404 39.175C35.6884 39.1443 35.7934 39.0797 35.9374 39.019L37.4923 42.7044ZM37.7581 42.5671C37.9591 42.4463 38.1255 42.2985 38.2586 42.1409C38.3887 41.9869 38.476 41.8366 38.5343 41.7156C38.5917 41.5966 38.6264 41.4944 38.6463 41.4294C38.6658 41.3657 38.6779 41.3145 38.6809 41.3019C38.6817 41.2985 38.6848 41.2855 38.6826 41.2945C38.682 41.2972 38.6792 41.3092 38.6753 41.3246C38.6682 41.353 38.6505 41.4209 38.6204 41.5052C38.5636 41.664 38.4166 42.0155 38.0621 42.3274L35.4197 39.3244C35.0616 39.6395 34.9123 39.9953 34.8538 40.1588C34.8228 40.2456 34.8044 40.316 34.7966 40.347C34.7924 40.3637 34.7893 40.377 34.7884 40.381C34.7859 40.3913 34.7887 40.3796 34.7892 40.3776C34.7915 40.3676 34.803 40.3191 34.8217 40.2579C34.8408 40.1954 34.8747 40.0957 34.9309 39.979C34.9881 39.8603 35.0741 39.7121 35.2026 39.56C35.3341 39.4043 35.4986 39.2583 35.6972 39.1388L37.7581 42.5671ZM38.1685 42.2266C38.1694 42.2257 38.17 42.2251 38.1724 42.2226C38.1744 42.2206 38.1776 42.2174 38.1811 42.2137C38.1881 42.2066 38.1995 42.1948 38.2129 42.1807C38.2391 42.1531 38.2818 42.107 38.3301 42.0478C38.4306 41.9246 38.5629 41.7363 38.6657 41.4812L34.9556 39.9862C35.0431 39.769 35.1544 39.6127 35.2308 39.5191C35.2904 39.446 35.3542 39.3835 35.3133 39.4252L38.1685 42.2266ZM38.6727 41.4635L45.3558 24.411L41.6316 22.9514L34.9485 40.0039L38.6727 41.4635ZM45.3488 24.4287C45.6624 23.6504 45.5268 22.7625 44.998 22.1129L41.896 24.6382C41.5073 24.1607 41.4068 23.5091 41.6387 22.9337L45.3488 24.4287ZM45.0034 22.1195L33.503 7.86916L30.3902 10.3813L41.8906 24.6316L45.0034 22.1195Z" fill="url(#paint1_linear)"/>
<defs>
<linearGradient id="paint0_linear" x1="-3.92822" y1="43.8318" x2="23.7753" y2="54.9955" gradientUnits="userSpaceOnUse">
<stop stop-color="#B038DA"/>
<stop offset="1" stop-color="#F79DED"/>
</linearGradient>
<linearGradient id="paint1_linear" x1="31.9799" y1="9.09466" x2="18.1244" y2="43.4782" gradientUnits="userSpaceOnUse">
<stop stop-color="#BA46DD"/>
<stop offset="1" stop-color="#F89EEE"/>
</linearGradient>
</defs>
</svg>
