<svg width="158" height="37" viewBox="0 0 158 37" fill="none" xmlns="http://www.w3.org/2000/svg">
<path d="M132.5 33L138 18.5L154 16L148.5 31L132.5 33Z" fill="#B038DA"/>
<path fill-rule="evenodd" clip-rule="evenodd" d="M132.299 33.2106L137.216 20.4634L138.01 18.4084L153.702 16.037L147.991 30.8392L132.299 33.2106ZM121.954 20.5481L127.662 5.75222L137.487 18.2033L135.993 22.0779L131.779 33.001L121.954 20.5481ZM143.791 3.02609L153.618 15.4807L147.987 16.3323L137.925 17.8502L128.099 5.39556L143.791 3.02609ZM154.398 15.7892C154.409 15.7661 154.405 15.7391 154.407 15.7132C154.41 15.6912 154.418 15.6684 154.415 15.6452C154.41 15.6224 154.398 15.6045 154.387 15.5824C154.377 15.5582 154.374 15.5331 154.357 15.5119L144.128 2.54783C144.068 2.46979 143.967 2.43102 143.867 2.44511L127.536 4.91282C127.461 4.92339 127.403 4.97089 127.359 5.03025C127.344 5.05004 127.327 5.06625 127.318 5.08715L121.374 20.4945C121.339 20.588 121.354 20.694 121.416 20.7737L131.643 33.7361L131.645 33.7377C131.676 33.7766 131.717 33.8062 131.762 33.8233C131.765 33.825 131.769 33.8264 131.775 33.8294C131.784 33.8341 131.794 33.8248 131.802 33.8276C131.837 33.8364 131.869 33.8456 131.906 33.8405L148.237 31.3708C148.335 31.357 148.419 31.29 148.455 31.1965L154.398 15.7892Z" fill="url(#paint0_linear)"/>
<path d="M132.299 33.2106L131.366 32.8507L130.746 34.4565L132.448 34.1993L132.299 33.2106ZM137.216 20.4634L136.283 20.1031L136.283 20.1035L137.216 20.4634ZM138.01 18.4084L137.86 17.4196L137.286 17.5064L137.077 18.0481L138.01 18.4084ZM153.702 16.037L154.635 16.397L155.255 14.791L153.553 15.0482L153.702 16.037ZM147.991 30.8392L148.141 31.8279L148.715 31.7411L148.924 31.1991L147.991 30.8392ZM121.954 20.5481L121.021 20.1881L120.816 20.7199L121.169 21.1674L121.954 20.5481ZM127.662 5.75222L128.447 5.13279L127.361 3.75562L126.729 5.3923L127.662 5.75222ZM137.487 18.2033L138.42 18.563L138.625 18.0313L138.272 17.5839L137.487 18.2033ZM135.993 22.0779L136.926 22.4378L136.926 22.4376L135.993 22.0779ZM131.779 33.001L130.994 33.6204L132.08 34.9978L132.712 33.3609L131.779 33.001ZM143.791 3.02609L144.576 2.40667L144.217 1.95056L143.642 2.0373L143.791 3.02609ZM153.618 15.4807L153.768 16.4695L155.469 16.2122L154.403 14.8613L153.618 15.4807ZM147.987 16.3323L148.137 17.3212L148.137 17.3211L147.987 16.3323ZM137.925 17.8502L137.14 18.4696L137.5 18.9257L138.074 18.839L137.925 17.8502ZM128.099 5.39556L127.949 4.40677L126.247 4.66374L127.313 6.01498L128.099 5.39556ZM154.398 15.7892L153.487 15.3783L153.475 15.4035L153.465 15.4293L154.398 15.7892ZM154.407 15.7132L153.415 15.5894L153.412 15.6089L153.411 15.6284L154.407 15.7132ZM154.415 15.6452L155.405 15.5052L155.399 15.4642L155.39 15.4239L154.415 15.6452ZM154.387 15.5824L153.453 15.9403L153.47 15.9844L153.491 16.0267L154.387 15.5824ZM154.357 15.5119L155.144 14.8941L155.142 14.8924L154.357 15.5119ZM144.128 2.54783L143.335 3.15671L143.343 3.16726L144.128 2.54783ZM143.867 2.44511L143.727 1.45493L143.718 1.45634L143.867 2.44511ZM127.536 4.91282L127.676 5.903L127.685 5.90159L127.536 4.91282ZM127.359 5.03025L128.16 5.62886L127.359 5.03025ZM121.374 20.4945L120.441 20.1345L120.44 20.1385L121.374 20.4945ZM121.416 20.7737L120.627 21.3882L120.631 21.3931L121.416 20.7737ZM131.643 33.7361L130.858 34.3555L130.937 34.456L131.039 34.5333L131.643 33.7361ZM131.645 33.7377L132.428 33.1155L132.349 33.0167L132.248 32.9405L131.645 33.7377ZM131.762 33.8233L132.366 33.026L132.251 32.939L132.116 32.8879L131.762 33.8233ZM131.775 33.8294L132.26 32.9547L132.235 32.9412L132.21 32.9291L131.775 33.8294ZM131.802 33.8276L131.482 34.775L131.517 34.7868L131.553 34.7959L131.802 33.8276ZM131.906 33.8405L132.046 34.8306L132.055 34.8292L131.906 33.8405ZM148.237 31.3708L148.097 30.3806L148.087 30.3821L148.237 31.3708ZM148.455 31.1965L147.522 30.8366L147.52 30.8405L148.455 31.1965ZM133.232 33.5705L138.149 20.8233L136.283 20.1035L131.366 32.8507L133.232 33.5705ZM138.149 20.8238L138.943 18.7687L137.077 18.0481L136.283 20.1031L138.149 20.8238ZM138.159 19.3972L153.852 17.0258L153.553 15.0482L137.86 17.4196L138.159 19.3972ZM152.769 15.677L147.058 30.4792L148.924 31.1991L154.635 16.397L152.769 15.677ZM147.842 29.8504L132.149 32.2218L132.448 34.1993L148.141 31.8279L147.842 29.8504ZM122.887 20.908L128.595 6.11215L126.729 5.3923L121.021 20.1881L122.887 20.908ZM126.877 6.37166L136.701 18.8227L138.272 17.5839L128.447 5.13279L126.877 6.37166ZM136.553 17.8435L135.059 21.7181L136.926 22.4376L138.42 18.563L136.553 17.8435ZM135.06 21.718L130.846 32.6411L132.712 33.3609L136.926 22.4378L135.06 21.718ZM132.564 32.3817L122.739 19.9287L121.169 21.1674L130.994 33.6204L132.564 32.3817ZM143.006 3.64551L152.833 16.1001L154.403 14.8613L144.576 2.40667L143.006 3.64551ZM153.469 14.492L147.838 15.3436L148.137 17.3211L153.768 16.4695L153.469 14.492ZM147.838 15.3435L137.776 16.8614L138.074 18.839L148.137 17.3212L147.838 15.3435ZM138.71 17.2308L128.884 4.77614L127.313 6.01498L137.14 18.4696L138.71 17.2308ZM128.248 6.38435L143.941 4.01488L143.642 2.0373L127.949 4.40677L128.248 6.38435ZM155.31 16.2C155.392 16.0174 155.402 15.856 155.405 15.8005C155.405 15.7844 155.406 15.7709 155.406 15.7631C155.406 15.7591 155.406 15.7556 155.406 15.7536C155.406 15.751 155.406 15.7509 155.406 15.7503C155.406 15.7467 155.406 15.7687 155.404 15.798L153.411 15.6284C153.407 15.6707 153.407 15.7058 153.406 15.7152C153.406 15.7346 153.406 15.7176 153.407 15.704C153.408 15.6742 153.415 15.5379 153.487 15.3783L155.31 16.2ZM155.399 15.837C155.395 15.8702 155.39 15.8947 155.39 15.8947C155.388 15.9063 155.394 15.8768 155.397 15.858C155.406 15.8123 155.429 15.6758 155.405 15.5052L153.425 15.7853C153.404 15.6378 153.425 15.5242 153.429 15.5012C153.43 15.4973 153.431 15.4941 153.431 15.492C153.432 15.49 153.432 15.4887 153.432 15.4885C153.432 15.4884 153.432 15.4885 153.432 15.4889C153.432 15.4893 153.432 15.4897 153.431 15.4906C153.431 15.4921 153.431 15.4951 153.43 15.4984C153.428 15.5096 153.42 15.5452 153.415 15.5894L155.399 15.837ZM155.39 15.4239C155.362 15.3001 155.318 15.2079 155.296 15.1631C155.286 15.143 155.275 15.1242 155.275 15.1234C155.272 15.1182 155.277 15.1265 155.283 15.1381L153.491 16.0267C153.502 16.0493 153.512 16.0682 153.515 16.0732C153.52 16.0827 153.515 16.074 153.51 16.0639C153.498 16.0394 153.463 15.9675 153.44 15.8666L155.39 15.4239ZM155.32 15.2245C155.33 15.25 155.336 15.2695 155.335 15.2664C155.335 15.2657 155.335 15.2657 155.334 15.2631C155.334 15.2612 155.333 15.2579 155.331 15.2541C155.329 15.2466 155.325 15.2341 155.32 15.2191C155.299 15.1601 155.25 15.03 155.144 14.8941L153.571 16.1296C153.481 16.0149 153.442 15.908 153.43 15.8729C153.425 15.86 153.42 15.8443 153.426 15.8619C153.429 15.871 153.439 15.9027 153.453 15.9403L155.32 15.2245ZM155.142 14.8924L144.913 1.9284L143.343 3.16726L153.572 16.1313L155.142 14.8924ZM144.921 1.93901C144.628 1.55641 144.16 1.3937 143.727 1.45497L144.007 3.43525C143.774 3.46834 143.509 3.38317 143.335 3.15665L144.921 1.93901ZM143.718 1.45634L127.386 3.92404L127.685 5.90159L144.017 3.43389L143.718 1.45634ZM127.396 3.92268C126.956 3.98482 126.688 4.25749 126.558 4.43164L128.16 5.62886C128.119 5.68428 127.966 5.86195 127.676 5.90296L127.396 3.92268ZM126.558 4.43164C126.57 4.41574 126.579 4.40472 126.577 4.40668C126.577 4.40701 126.577 4.40735 126.576 4.40882C126.575 4.40998 126.573 4.41208 126.571 4.4144C126.567 4.41898 126.561 4.42685 126.553 4.43638C126.527 4.4695 126.453 4.5635 126.396 4.70035L128.24 5.47394C128.192 5.58989 128.131 5.66534 128.119 5.68019C128.114 5.68629 128.107 5.69544 128.118 5.68243C128.124 5.67513 128.141 5.65466 128.16 5.62886L126.558 4.43164ZM126.385 4.72722L120.441 20.1345L122.307 20.8544L128.251 5.44707L126.385 4.72722ZM120.44 20.1385C120.282 20.5538 120.347 21.0286 120.627 21.3882L122.205 20.1592C122.361 20.3594 122.396 20.6221 122.309 20.8504L120.44 20.1385ZM120.631 21.3931L130.858 34.3555L132.428 33.1167L122.201 20.1543L120.631 21.3931ZM131.039 34.5333L131.041 34.535L132.248 32.9405L132.246 32.9388L131.039 34.5333ZM130.862 34.3599C131.008 34.5436 131.199 34.6794 131.409 34.7587L132.116 32.8879C132.235 32.9329 132.343 33.0096 132.428 33.1155L130.862 34.3599ZM131.159 34.6207C131.222 34.6685 131.277 34.6984 131.304 34.7122C131.331 34.7265 131.354 34.7365 131.359 34.7386C131.379 34.7476 131.354 34.7368 131.34 34.7297L132.21 32.9291C132.189 32.9191 132.16 32.906 132.176 32.9131C132.178 32.9143 132.199 32.9235 132.225 32.937C132.25 32.9499 132.304 32.979 132.366 33.026L131.159 34.6207ZM131.29 34.7041C131.393 34.7612 131.5 34.7965 131.602 34.8148C131.701 34.8327 131.789 34.833 131.856 34.828C131.923 34.823 131.976 34.8124 132.01 34.8047C132.043 34.7971 132.068 34.7894 132.075 34.7873C132.077 34.7868 132.084 34.7848 132.079 34.786C132.078 34.7863 132.073 34.788 132.065 34.7901C132.052 34.794 132.019 34.8032 131.975 34.8111C131.893 34.8261 131.705 34.8502 131.482 34.775L132.122 32.8801C131.895 32.8035 131.703 32.8278 131.616 32.8436C131.57 32.8519 131.535 32.8617 131.519 32.8662C131.51 32.8686 131.504 32.8707 131.501 32.8714C131.496 32.873 131.502 32.8713 131.502 32.8711C131.507 32.8698 131.53 32.8627 131.561 32.8557C131.592 32.8485 131.643 32.8383 131.707 32.8335C131.772 32.8286 131.858 32.8288 131.955 32.8463C132.055 32.8643 132.159 32.8988 132.26 32.9547L131.29 34.7041ZM131.553 34.7959C131.554 34.7963 131.575 34.8019 131.595 34.8066C131.617 34.8119 131.652 34.8196 131.693 34.8264C131.779 34.8403 131.901 34.851 132.046 34.8306L131.765 32.8503C131.873 32.8351 131.961 32.8437 132.013 32.8522C132.038 32.8561 132.055 32.8602 132.061 32.8615C132.063 32.8621 132.067 32.8633 132.052 32.8592L131.553 34.7959ZM132.055 34.8292L148.386 32.3596L148.087 30.3821L131.756 32.8517L132.055 34.8292ZM148.377 32.361C148.836 32.296 149.224 31.9855 149.389 31.5524L147.52 30.8405C147.614 30.5945 147.833 30.418 148.097 30.3807L148.377 32.361ZM149.388 31.5564L155.331 16.1491L153.465 15.4293L147.522 30.8366L149.388 31.5564Z" fill="url(#paint1_linear)"/>
<path d="M0 21L122 21" stroke="#5E2ED0" stroke-width="2"/>
<defs>
<linearGradient id="paint0_linear" x1="111.117" y1="3.42064" x2="114.889" y2="30.0906" gradientUnits="userSpaceOnUse">
<stop stop-color="#B038DA"/>
<stop offset="1" stop-color="#F79DED"/>
</linearGradient>
<linearGradient id="paint1_linear" x1="154.437" y1="15.8014" x2="121.336" y2="20.4841" gradientUnits="userSpaceOnUse">
<stop stop-color="#BA46DD"/>
<stop offset="1" stop-color="#5915E2"/>
</linearGradient>
</defs>
</svg>
