<svg width="13" height="14" viewBox="0 0 13 14" fill="none" xmlns="http://www.w3.org/2000/svg">
<path d="M6.2078 13.1359C5.04047 13.1359 3.99213 12.8752 3.0628 12.3539C2.13347 11.8212 1.40247 11.0902 0.869801 10.1609C0.337134 9.23153 0.0708008 8.18887 0.0708008 7.03287C0.0708008 5.8882 0.337134 4.85687 0.869801 3.93887C1.40247 3.00953 2.13347 2.2842 3.0628 1.76287C4.00347 1.2302 5.0518 0.963867 6.2078 0.963867C7.37513 0.963867 8.42913 1.2302 9.3698 1.76287C10.3105 2.2842 11.0471 3.00953 11.5798 3.93887C12.1125 4.85687 12.3788 5.8882 12.3788 7.03287C12.3788 8.18887 12.1125 9.23153 11.5798 10.1609C11.0471 11.0902 10.3105 11.8212 9.3698 12.3539C8.42913 12.8752 7.37513 13.1359 6.2078 13.1359ZM6.2078 12.0139C7.1598 12.0139 8.01547 11.7985 8.7748 11.3679C9.53413 10.9372 10.1291 10.3422 10.5598 9.58287C10.9905 8.82353 11.2058 7.97353 11.2058 7.03287C11.2058 6.10353 10.9905 5.26487 10.5598 4.51687C10.1291 3.75753 9.53413 3.16253 8.7748 2.73187C8.01547 2.3012 7.1598 2.08587 6.2078 2.08587C5.2558 2.08587 4.40013 2.3012 3.6408 2.73187C2.8928 3.16253 2.30347 3.75753 1.8728 4.51687C1.45347 5.26487 1.2438 6.10353 1.2438 7.03287C1.2438 7.97353 1.45347 8.82353 1.8728 9.58287C2.30347 10.3422 2.8928 10.9372 3.6408 11.3679C4.40013 11.7985 5.2558 12.0139 6.2078 12.0139ZM6.2418 10.0759C5.65247 10.0759 5.17647 9.91153 4.8138 9.58287C4.46247 9.2542 4.2868 8.8122 4.2868 8.25687V5.80887C4.2868 5.26487 4.46247 4.82853 4.8138 4.49987C5.17647 4.1712 5.65247 4.00687 6.2418 4.00687C6.83113 4.00687 7.30147 4.16553 7.6528 4.48287C8.01547 4.8002 8.1968 5.2252 8.1968 5.75787C8.1968 5.8032 8.1798 5.84287 8.1458 5.87687C8.1118 5.89953 8.07213 5.91087 8.0268 5.91087H7.4318C7.31847 5.91087 7.2618 5.8542 7.2618 5.74087C7.2618 5.46887 7.16547 5.24787 6.9728 5.07787C6.79147 4.90787 6.5478 4.82287 6.2418 4.82287C5.9358 4.82287 5.69213 4.90787 5.5108 5.07787C5.32947 5.23653 5.2388 5.45753 5.2388 5.74087V8.34187C5.2388 8.61387 5.32947 8.83487 5.5108 9.00487C5.69213 9.17487 5.9358 9.25987 6.2418 9.25987C6.53647 9.25987 6.78013 9.17487 6.9728 9.00487C7.16547 8.83487 7.2618 8.61387 7.2618 8.34187C7.2618 8.22853 7.31847 8.17187 7.4318 8.17187H8.0268C8.14013 8.17187 8.1968 8.22287 8.1968 8.32487C8.1968 8.8462 8.01547 9.2712 7.6528 9.59987C7.29013 9.9172 6.8198 10.0759 6.2418 10.0759Z" fill="white"/>
</svg>
